<svg width="32" height="32" viewBox="0 0 32 32" fill="none" xmlns="http://www.w3.org/2000/svg">
<g clip-path="url(#clip0_25432_86839)">
<path fill-rule="evenodd" clip-rule="evenodd" d="M16 0C24.8352 0 32 7.1648 32 16C32 24.8352 24.8352 32 16 32C7.1648 32 0 24.8352 0 16C0 7.1648 7.1648 0 16 0Z" fill="#0055D5"/>
<path fill-rule="evenodd" clip-rule="evenodd" d="M8.70357 10.5856C8.70357 10.5856 6.98198 9.20956 6.86358 12.6079C6.74518 15.2415 6.74838 20.3551 7.96758 22.7711C8.48277 23.6799 9.17077 23.4015 10.4508 22.4959C11.5644 21.6735 15.5932 17.9615 17.2988 16.3327C19.0044 14.7039 22.4636 10.032 23.1836 13.2063C23.4684 14.5407 23.8204 15.6735 23.5516 18.6335C23.4684 19.5455 23.078 20.2367 21.2988 19.0015C19.9548 18.1375 18.678 17.2095 18.678 17.2095C18.678 17.2095 18.4316 16.7679 17.8492 17.4847C17.3916 18.0575 17.1612 18.1983 17.894 18.6335C18.63 19.0687 22.3516 21.6351 23.7788 22.0351C24.9563 22.3775 25.6283 22.3711 25.6635 20.0575C25.6571 18.2207 25.5515 12.9631 24.8827 10.7232C24.3772 9.32796 23.6348 8.69436 22.0316 10.2624C20.4284 11.8304 15.3724 16.7327 12.6076 18.9535C10.774 20.3295 9.98997 21.5711 9.29877 19.2767C8.81237 17.5391 8.18198 12.1311 10.1724 13.1615C11.4172 13.7567 12.038 13.7535 11.5516 14.1279C11.0652 14.4991 9.66677 15.7823 9.66677 15.7823C9.66677 15.7823 9.23477 16.1311 9.43637 16.8863C9.63797 17.4143 9.63797 17.6767 10.7228 16.6559C11.8076 15.6351 12.6076 14.8639 12.6076 14.8639C12.6076 14.8639 12.7804 14.5919 13.2956 15.0943C13.8108 15.5967 13.894 15.7375 13.894 15.7375C13.894 15.7375 14.0316 16.1119 14.582 15.4623C15.1356 14.8127 15.4908 14.4159 14.4444 13.8079C13.4012 13.1935 8.70357 10.5856 8.70357 10.5856Z" fill="white"/>
</g>
<defs>
<clipPath id="clip0_25432_86839">
<rect width="32" height="32" fill="white"/>
</clipPath>
</defs>
</svg>
