<svg width="32" height="32" viewBox="0 0 32 32" fill="none" xmlns="http://www.w3.org/2000/svg">
<path fill-rule="evenodd" clip-rule="evenodd" d="M16 32C24.8366 32 32 24.8366 32 16C32 7.16344 24.8366 0 16 0C7.16344 0 0 7.16344 0 16C0 24.8366 7.16344 32 16 32Z" fill="white"/>
<path fill-rule="evenodd" clip-rule="evenodd" d="M16 31.5C24.5604 31.5 31.5 24.5604 31.5 16C31.5 7.43959 24.5604 0.5 16 0.5C7.43959 0.5 0.5 7.43959 0.5 16C0.5 24.5604 7.43959 31.5 16 31.5ZM32 16C32 24.8366 24.8366 32 16 32C7.16344 32 0 24.8366 0 16C0 7.16344 7.16344 0 16 0C24.8366 0 32 7.16344 32 16Z" fill="#E6E9EC"/>
<g clip-path="url(#clip0_25300_86646)">
<path d="M15.9987 10.1949C17.905 10.1949 19.4504 9.2558 19.4504 8.09743C19.4504 6.93905 17.905 6 15.9987 6C14.0923 6 12.5469 6.93905 12.5469 8.09743C12.5469 9.2558 14.0923 10.1949 15.9987 10.1949Z" fill="#E6007A"/>
<path d="M15.9987 25.9986C17.905 25.9986 19.4504 25.0595 19.4504 23.9011C19.4504 22.7428 17.905 21.8037 15.9987 21.8037C14.0923 21.8037 12.5469 22.7428 12.5469 23.9011C12.5469 25.0595 14.0923 25.9986 15.9987 25.9986Z" fill="#E6007A"/>
<path d="M11.1897 13.0978C12.1429 11.373 12.1367 9.50492 11.1759 8.92534C10.215 8.34576 8.66344 9.27417 7.71026 10.999C6.75708 12.7238 6.76327 14.5919 7.72408 15.1715C8.68489 15.7511 10.2365 14.8227 11.1897 13.0978Z" fill="#E6007A"/>
<path d="M24.2869 20.9988C25.2401 19.2739 25.2345 17.4062 24.2743 16.827C23.3141 16.2478 21.7631 17.1765 20.8099 18.9013C19.8567 20.6262 19.8624 22.4939 20.8225 23.0731C21.7827 23.6523 23.3338 22.7236 24.2869 20.9988Z" fill="#E6007A"/>
<path d="M11.1759 23.0727C12.1367 22.4931 12.1429 20.625 11.1897 18.9002C10.2365 17.1754 8.68489 16.247 7.72408 16.8266C6.76327 17.4061 6.75708 19.2742 7.71026 20.9991C8.66344 22.7239 10.215 23.6523 11.1759 23.0727Z" fill="#E6007A"/>
<path d="M24.2762 15.172C25.2364 14.5929 25.2421 12.7251 24.2889 11.0003C23.3357 9.27543 21.7846 8.34671 20.8245 8.9259C19.8643 9.50509 19.8586 11.3729 20.8118 13.0977C21.765 14.8225 23.3161 15.7512 24.2762 15.172Z" fill="#E6007A"/>
</g>
<defs>
<clipPath id="clip0_25300_86646">
<rect width="18" height="20" fill="white" transform="translate(7 6)"/>
</clipPath>
</defs>
</svg>
