<svg width="32" height="32" viewBox="0 0 32 32" fill="none" xmlns="http://www.w3.org/2000/svg">
<path fill-rule="evenodd" clip-rule="evenodd" d="M16 32C24.8366 32 32 24.8366 32 16C32 7.16344 24.8366 0 16 0C7.16344 0 0 7.16344 0 16C0 24.8366 7.16344 32 16 32Z" fill="black"/>
<g clip-path="url(#clip0)">
<path d="M23.7087 22.8374L21.1268 11.7589L21.1222 11.7359L15.9817 4.69434L10.9436 11.713L10.9297 11.7313L8.29199 22.8328L15.9771 27.3054L23.5365 22.9337L23.5412 22.9429L23.5365 22.9337L23.7087 22.8374ZM17.1028 22.8924L15.9817 26.3834L14.9211 22.8924H17.1028ZM11.367 11.8369L15.7677 5.69897V9.96522L12.5346 15.5113L11.367 11.8369ZM12.2369 16.0205L9.07353 21.4382L11.1437 12.5846L12.2369 16.0205ZM12.4369 16.5894L14.307 22.4795H8.97118L12.4369 16.5894ZM16.1911 5.68979L20.6756 11.8369L19.4754 15.5664L16.1911 9.9698V5.68979ZM19.587 16.5848L20.4709 18.0848L23.0527 22.4841H17.6843L19.587 16.5848ZM20.8849 12.5846L22.9736 21.5116L20.8291 17.8692L19.7731 16.071L20.8849 12.5846ZM22.7503 22.897L16.3492 26.6265L17.5541 22.897H22.7503ZM19.3032 16.0985L17.2424 22.4841H14.7443L12.7021 16.0481L15.9771 10.4377L19.3032 16.0985ZM9.27356 22.8924H14.4373L15.6235 26.6219L9.27356 22.8924Z" fill="white"/>
</g>
<defs>
<clipPath id="clip0">
<rect width="15.4167" height="22.6111" fill="white" transform="translate(8.29199 4.69434)"/>
</clipPath>
</defs>
</svg>
