<svg width="32" height="32" viewBox="0 0 32 32" fill="none" xmlns="http://www.w3.org/2000/svg">
<path d="M16 32C24.8366 32 32 24.8366 32 16C32 7.16344 24.8366 0 16 0C7.16344 0 0 7.16344 0 16C0 24.8366 7.16344 32 16 32Z" fill="#1969EE"/>
<path d="M14.957 4.2299C15.5422 3.92337 16.4327 3.92337 17.018 4.2299L22.9898 7.3578C23.3422 7.5424 23.5358 7.8175 23.5705 8.1015H23.5762V23.824C23.5685 24.1337 23.373 24.4414 22.9898 24.6422L17.018 27.7701C16.4327 28.0767 15.5422 28.0767 14.957 27.7701L8.98515 24.6422C8.6035 24.4424 8.42035 24.1324 8.4113 23.824C8.4104 23.7936 8.41025 23.7683 8.41115 23.7473L8.4111 8.2025C8.4105 8.18545 8.41045 8.16845 8.41095 8.1515L8.4113 8.1015H8.41395C8.4405 7.8144 8.62525 7.5463 8.98515 7.3578L14.957 4.2299ZM22.6361 16.873L17.018 19.8157C16.4327 20.1222 15.5422 20.1222 14.957 19.8157L9.35115 16.8796V23.7929L14.957 26.7135C15.2735 26.8814 15.602 27.0449 15.9233 27.0657L15.9874 27.0677C16.3222 27.0689 16.6472 26.9003 16.9768 26.7407L22.6361 23.7677V16.873ZM7.43995 23.4822C7.43995 24.0844 7.51055 24.4804 7.65075 24.7594C7.76695 24.9906 7.94125 25.1672 8.25955 25.3823L8.2777 25.3945C8.3476 25.4412 8.42455 25.4901 8.5182 25.5475L8.62865 25.6146L8.96785 25.8177L8.48135 26.6153L8.1017 26.3879L8.0379 26.349C7.9281 26.2817 7.83715 26.2242 7.75225 26.1674C6.8451 25.5608 6.5068 24.8997 6.5001 23.524L6.5 23.4822H7.43995ZM15.5174 12.6589C15.4739 12.6737 15.4331 12.6908 15.396 12.7103L9.42415 15.8382C9.4179 15.8415 9.4119 15.8447 9.40625 15.8479L9.40115 15.8509L9.41055 15.8562L9.42415 15.8635L15.396 18.9914C15.4331 19.0109 15.4739 19.028 15.5174 19.0428V12.6589ZM16.4576 12.6589V19.0428C16.501 19.028 16.5418 19.0109 16.579 18.9914L22.5508 15.8635C22.5571 15.8602 22.5631 15.857 22.5687 15.8538L22.5737 15.8509L22.5644 15.8455L22.5508 15.8382L16.579 12.7103C16.5418 12.6908 16.501 12.6737 16.4576 12.6589ZM22.6361 9.2168L17.279 12.0228L22.6361 14.8287V9.2168ZM9.35115 9.22335V14.8221L14.6958 12.0228L9.35115 9.22335ZM16.579 5.05415C16.2684 4.89149 15.7066 4.89149 15.396 5.05415L9.42415 8.18205C9.4179 8.18535 9.4119 8.1886 9.40625 8.1918L9.40115 8.1947L9.41055 8.20005L9.42415 8.20735L15.396 11.3353C15.7066 11.4979 16.2684 11.4979 16.579 11.3353L22.5508 8.20735C22.5571 8.2041 22.5631 8.20085 22.5687 8.1976L22.5737 8.1947L22.5644 8.1894L22.5508 8.18205L16.579 5.05415ZM23.5187 5.39715L23.8983 5.62455L23.9621 5.6634C24.0719 5.7306 24.1628 5.7883 24.2477 5.84505C25.1549 6.45155 25.4932 7.1128 25.4998 8.4884L25.5 8.5303H24.56C24.56 7.9279 24.4895 7.53195 24.3493 7.253C24.2331 7.02185 24.0587 6.84515 23.7404 6.63015L23.7223 6.61795C23.6524 6.57125 23.5755 6.52235 23.4818 6.46485L23.3713 6.39775L23.0322 6.19475L23.5187 5.39715Z" fill="white"/>
</svg>
