<svg width="32" height="32" viewBox="0 0 32 32" fill="none" xmlns="http://www.w3.org/2000/svg">
<path d="M16 32C24.8366 32 32 24.8366 32 16C32 7.16344 24.8366 0 16 0C7.16344 0 0 7.16344 0 16C0 24.8366 7.16344 32 16 32Z" fill="#7E56E0"/>
<path d="M20.583 12.9475C20.2509 12.7446 19.8192 12.7446 19.4539 12.9475L16.8635 14.5035L15.1033 15.5183L12.5129 17.0744C12.1808 17.2773 11.7491 17.2773 11.3838 17.0744L9.32472 15.8566C8.99263 15.6537 8.76017 15.2816 8.76017 14.8756V12.4739C8.76017 12.068 8.95942 11.6959 9.32472 11.493L11.3506 10.309C11.6827 10.1061 12.1144 10.1061 12.4797 10.309L14.5055 11.493C14.8377 11.6959 15.0701 12.068 15.0701 12.4739V14.03L16.8303 12.9813V11.4253C16.8303 11.0194 16.631 10.6473 16.2657 10.4443L12.5129 8.21179C12.1808 8.00883 11.7491 8.00883 11.3838 8.21179L7.56458 10.4443C7.19925 10.6473 7 11.0194 7 11.4253V15.9243C7 16.3302 7.19925 16.7023 7.56458 16.9052L11.3838 19.1378C11.7159 19.3408 12.1476 19.3408 12.5129 19.1378L15.1033 17.6156L16.8635 16.567L19.4539 15.0448C19.786 14.8418 20.2177 14.8418 20.583 15.0448L22.6089 16.2287C22.941 16.4317 23.1734 16.8037 23.1734 17.2097V19.6114C23.1734 20.0173 22.9742 20.3894 22.6089 20.5923L20.583 21.8101C20.2509 22.0131 19.8192 22.0131 19.4539 21.8101L17.428 20.6262C17.096 20.4232 16.8635 20.0511 16.8635 19.6452V18.0892L15.1033 19.1378V20.6938C15.1033 21.0997 15.3026 21.4718 15.6679 21.6748L19.4871 23.9074C19.8192 24.1103 20.2509 24.1103 20.6162 23.9074L24.4354 21.6748C24.7675 21.4718 25 21.0997 25 20.6938V16.1949C25 15.7889 24.8007 15.4169 24.4354 15.2139L20.583 12.9475Z" fill="white"/>
</svg>
