<svg width="32" height="32" viewBox="0 0 32 32" fill="none" xmlns="http://www.w3.org/2000/svg">
<path d="M16 32C24.8667 32 32 24.8667 32 16C32 7.13328 24.8667 0 16 0C7.13328 0 0 7.13328 0 16C0 24.8667 7.13328 32 16 32Z" fill="#E8CD24"/>
<path fill-rule="evenodd" clip-rule="evenodd" d="M15.6767 6.50627C14.4929 6.50789 13.3613 6.99515 12.5471 7.85527L12.5458 7.85529C11.3952 7.72823 10.2348 7.99475 9.25469 8.61078L8.66114 9.2583C8.34637 9.70797 8.21896 10.1576 8.09156 10.6073C8.06608 10.6972 8.0406 10.7872 8.01362 10.8771L7.74382 11.9563C7.57978 13.3091 7.23497 14.6343 6.71858 15.8954C6.19948 16.9158 5.92213 18.0419 5.90918 19.1869C5.90918 19.6186 5.96314 20.2661 6.34086 20.9136C6.92305 21.9192 7.81671 22.3019 8.56358 22.6217L8.60718 22.6404C9.36261 22.9641 10.0101 23.126 10.4958 23.18C10.4938 23.1745 10.4919 23.1691 10.49 23.1637C10.494 23.1689 10.4981 23.1742 10.5021 23.1794C10.5002 23.1795 10.4977 23.1799 10.4958 23.18C11.7045 24.557 13.4156 25.3926 15.2448 25.5C16.3267 25.4428 17.3477 24.9804 18.1047 24.205C19.5978 22.9261 21.1653 21.7368 22.7992 20.6436L23.7165 20.2659C24.0943 20.104 24.7418 19.7263 25.3353 19.0248C25.9829 18.1614 26.0908 17.2441 26.0908 16.9204C26.019 15.8995 25.6845 14.9142 25.1196 14.0606C25.4331 13.2868 25.6156 12.4661 25.6593 11.6325C25.6593 11.3087 25.6054 10.6072 25.1197 9.95971C24.4722 9.15031 23.5009 8.98843 23.0153 8.93447C21.1186 8.90641 19.2748 8.30422 17.7272 7.20775C17.1655 6.70862 16.4268 6.45609 15.6767 6.50627ZM25.1182 14.0606L25.1177 14.0596L25.1196 14.0606L25.1158 14.0671L25.1182 14.0606ZM15.6217 21.2375C17.1185 21.2391 18.5479 20.6127 19.5607 19.5108C20.8018 18.1078 20.8018 16.489 20.8018 15.8955C20.8018 15.6797 20.6939 12.4421 18.2117 11.0931C17.0786 10.4455 15.9454 10.4995 15.6217 10.5535C14.2727 10.6074 13.3554 11.201 12.9776 11.4708C12.9733 11.4741 12.9687 11.4775 12.964 11.481C12.5045 11.8253 10.4944 13.3317 10.3876 15.8955C10.3349 17.7926 11.3629 19.0721 11.6121 19.3823C11.6181 19.3897 11.6236 19.3966 11.6286 19.4029C13.1395 21.1836 15.2979 21.2375 15.6217 21.2375Z" fill="white"/>
</svg>
