<svg width="32" height="32" viewBox="0 0 32 32" fill="none" xmlns="http://www.w3.org/2000/svg">
<path fill-rule="evenodd" clip-rule="evenodd" d="M16 32C24.8366 32 32 24.8366 32 16C32 7.16344 24.8366 0 16 0C7.16344 0 0 7.16344 0 16C0 24.8366 7.16344 32 16 32Z" fill="#00845D"/>
<path fill-rule="evenodd" clip-rule="evenodd" d="M14.4401 4.33887H17.4884V8.30374H23.3984V10.749H17.4884V14.793H19.5427C22.0099 14.793 24.01 16.7931 24.01 19.2603C24.0099 21.7275 22.0099 23.7275 19.5427 23.7275H17.4884V27.6615H14.4401V23.7275H8.62276V21.2823H14.4401V17.2383H12.4565C9.98933 17.2383 7.98926 15.2382 7.98926 12.771C7.98926 10.3038 9.98934 8.30372 12.4566 8.30373L14.4401 8.30374V4.33887ZM13.0191 10.749H14.4401V14.793H13.0191C11.9145 14.793 11.0191 13.8976 11.0191 12.793V12.749C11.0191 11.6445 11.9145 10.749 13.0191 10.749ZM17.4884 17.2383V21.2823H18.9396C20.0564 21.2823 20.9616 20.377 20.9616 19.2603C20.9616 18.1436 20.0564 17.2383 18.9396 17.2383H17.4884ZM17.4844 14.791H14.4463V17.2335H17.4844V14.791Z" fill="white"/>
</svg>
